<svg width="31" height="31" viewBox="0 0 31 31" fill="none" xmlns="http://www.w3.org/2000/svg">
<path d="M30.0313 15.5C30.0313 18.374 29.179 21.1835 27.5823 23.5731C25.9856 25.9628 23.7161 27.8253 21.0609 28.9251C18.4056 30.025 15.4839 30.3127 12.6651 29.7521C9.84631 29.1914 7.25709 27.8074 5.22486 25.7752C3.19263 23.7429 1.80866 21.1537 1.24797 18.3349C0.687279 15.5161 0.975046 12.5944 2.07488 9.93915C3.17472 7.28391 5.03722 5.01444 7.42688 3.41773C9.81653 1.82101 12.626 0.968771 15.5 0.968771C18.6458 0.958173 21.7084 1.97904 24.2188 3.87502V2.37346C24.2188 2.11653 24.3208 1.87012 24.5025 1.68845C24.6842 1.50677 24.9306 1.40471 25.1875 1.40471C25.4444 1.40471 25.6908 1.50677 25.8725 1.68845C26.0542 1.87012 26.1563 2.11653 26.1563 2.37346V6.49065C26.1563 6.74757 26.0542 6.99398 25.8725 7.17566C25.6908 7.35733 25.4444 7.45939 25.1875 7.45939H21.08C20.8231 7.45939 20.5767 7.35733 20.395 7.17566C20.2133 6.99398 20.1113 6.74757 20.1113 6.49065C20.1113 6.23372 20.2133 5.98731 20.395 5.80564C20.5767 5.62396 20.8231 5.5219 21.08 5.5219H23.1531C20.9661 3.8192 18.2717 2.89832 15.5 2.90627C12.7714 2.90705 10.1168 3.79402 7.93581 5.43369C5.7548 7.07336 4.16531 9.37704 3.40656 11.998C2.6478 14.619 2.76083 17.4156 3.72862 19.9668C4.69641 22.518 6.46662 24.6859 8.77284 26.1442C11.0791 27.6026 13.7965 28.2724 16.5163 28.053C19.2361 27.8336 21.8111 26.7367 23.8537 24.9276C25.8963 23.1184 27.2961 20.6948 27.8424 18.0214C28.3887 15.348 28.0519 12.5696 26.8828 10.1041C26.7723 9.87156 26.7588 9.60468 26.845 9.36214C26.9313 9.1196 27.1105 8.92128 27.343 8.8108C27.5755 8.70032 27.8424 8.68674 28.0849 8.77303C28.3275 8.85933 28.5258 9.03844 28.6363 9.27096C29.5572 11.2182 30.0337 13.3459 30.0313 15.5ZM13.5625 16.4688C13.8194 16.4688 14.0658 16.3667 14.2475 16.185C14.4292 16.0034 14.5313 15.7569 14.5313 15.5V11.625C14.5313 11.3681 14.4292 11.1217 14.2475 10.94C14.0658 10.7583 13.8194 10.6563 13.5625 10.6563H9.68751C9.43058 10.6563 9.18417 10.7583 9.0025 10.94C8.82082 11.1217 8.71876 11.3681 8.71876 11.625C8.71876 11.8819 8.82082 12.1284 9.0025 12.31C9.18417 12.4917 9.43058 12.5938 9.68751 12.5938H12.5938V14.5313H9.68751C9.43058 14.5313 9.18417 14.6333 9.0025 14.815C8.82082 14.9967 8.71876 15.2431 8.71876 15.5V19.375C8.71876 19.6319 8.82082 19.8784 9.0025 20.06C9.18417 20.2417 9.43058 20.3438 9.68751 20.3438H13.5625C13.8194 20.3438 14.0658 20.2417 14.2475 20.06C14.4292 19.8784 14.5313 19.6319 14.5313 19.375C14.5313 19.1181 14.4292 18.8717 14.2475 18.69C14.0658 18.5083 13.8194 18.4063 13.5625 18.4063H10.6563V16.4688H13.5625ZM21.3125 20.3438C21.5694 20.3438 21.8158 20.2417 21.9975 20.06C22.1792 19.8784 22.2813 19.6319 22.2813 19.375V11.625C22.2813 11.3681 22.1792 11.1217 21.9975 10.94C21.8158 10.7583 21.5694 10.6563 21.3125 10.6563C21.0556 10.6563 20.8092 10.7583 20.6275 10.94C20.4458 11.1217 20.3438 11.3681 20.3438 11.625V14.5313H18.4063V11.625C18.4063 11.3681 18.3042 11.1217 18.1225 10.94C17.9408 10.7583 17.6944 10.6563 17.4375 10.6563C17.1806 10.6563 16.9342 10.7583 16.7525 10.94C16.5708 11.1217 16.4688 11.3681 16.4688 11.625V15.5C16.4688 15.7569 16.5708 16.0034 16.7525 16.185C16.9342 16.3667 17.1806 16.4688 17.4375 16.4688H20.3438V19.375C20.3438 19.6319 20.4458 19.8784 20.6275 20.06C20.8092 20.2417 21.0556 20.3438 21.3125 20.3438Z" fill="black"/>
</svg>
